# xmcd CD database file
#
# Track frame offsets:
#	150
#	14086
#	36552
#	50320
#	71817
#	103143
#	119099
#	147798
#	161620
#	191568
#	207301
#	225297
#	249358
#	270257
#
# Disc length: 4003 seconds
#
# Revision: 0
# Processed by: cddbd v1.5.2PL0 Copyright (c) Steve Scherf et al.
# Submitted via: CDex 1.79
#
DISCID=ca0fa10e
DTITLE=Black cat bone band - Just a little blues
DYEAR=1995
DGENRE=Blues
TTITLE0=Just a little bit
TTITLE1=Love to jump the boogie
TTITLE2=Darkend of the street
TTITLE3=Jambalaya
TTITLE4=You gotta love her with a feeling
TTITLE5=Sunnyland
TTITLE6=Black night
TTITLE7=Dixie diner
TTITLE8=Help me
TTITLE9=Flip, flop and fly
TTITLE10=Who
TTITLE11=Got my mojo working
TTITLE12=You don't have to go
TTITLE13=Nothing but trouble
EXTD=YEAR: 1995
EXTT0=
EXTT1=
EXTT2=
EXTT3=
EXTT4=
EXTT5=
EXTT6=
EXTT7=
EXTT8=
EXTT9=
EXTT10=
EXTT11=
EXTT12=
EXTT13=
PLAYORDER=
